<?xml version="1.0" encoding="UTF-8" standalone="no"?>
<!-- Created with Inkscape (http://www.inkscape.org/) -->

<svg
   xmlns:dc="http://purl.org/dc/elements/1.1/"
   xmlns:cc="http://creativecommons.org/ns#"
   xmlns:rdf="http://www.w3.org/1999/02/22-rdf-syntax-ns#"
   xmlns:svg="http://www.w3.org/2000/svg"
   xmlns="http://www.w3.org/2000/svg"
   xmlns:sodipodi="http://sodipodi.sourceforge.net/DTD/sodipodi-0.dtd"
   xmlns:inkscape="http://www.inkscape.org/namespaces/inkscape"
   version="1.1"
   id="svg1336"
   width="106.40519"
   height="89.566895"
   viewBox="0 0 106.40519 89.566895"
   sodipodi:docname="insignia.svg"
   inkscape:version="0.92.3 (2405546, 2018-03-11)">
  <metadata
     id="metadata1342">
    <rdf:RDF>
      <cc:Work
         rdf:about="">
        <dc:format>image/svg+xml</dc:format>
        <dc:type
           rdf:resource="http://purl.org/dc/dcmitype/StillImage" />
        <dc:title></dc:title>
      </cc:Work>
    </rdf:RDF>
  </metadata>
  <defs
     id="defs1340" />
  <sodipodi:namedview
     pagecolor="#ffffff"
     bordercolor="#666666"
     borderopacity="1"
     objecttolerance="10"
     gridtolerance="10"
     guidetolerance="10"
     inkscape:pageopacity="0"
     inkscape:pageshadow="2"
     inkscape:window-width="3200"
     inkscape:window-height="1644"
     id="namedview1338"
     showgrid="false"
     inkscape:zoom="4.3274477"
     inkscape:cx="72.460974"
     inkscape:cy="39.272011"
     inkscape:window-x="0"
     inkscape:window-y="0"
     inkscape:window-maximized="1"
     inkscape:current-layer="svg1336" />
  <path
     style="fill:#000000;stroke:#000000;stroke-width:1.88976383;stroke-linecap:round;stroke-linejoin:round;stroke-miterlimit:4;stroke-dasharray:none;stroke-opacity:1"
     d="m 37.782615,88.479354 c -0.77379,-0.16421 -1.78114,-0.63367 -2.38653,-1.11221 -1.28453,-1.01536 -2.45618,-3.39866 -2.89397,-5.88675 -0.20215,-1.1489 -0.27702,-3.75938 -0.14757,-5.14553 0.2417,-2.58823 0.80805,-5.7718 1.50421,-8.45557 0.19587,-0.75512 0.20363,-0.84551 0.0687,-0.80148 -0.0836,0.0273 -0.86922,0.30028 -1.74578,0.60663 -3.88594,1.3581 -7.98566,2.32814 -11.35951,2.68779 l -0.56756,0.0605 -1.07625,1.0158 c -0.59193,0.55869 -1.54125,1.44611 -2.10958,1.97205 -0.56834,0.52593 -1.884,1.89884 -2.92369,3.05089 -2.95167,3.27068 -4.12961,4.34836 -5.8833801,5.38262 -0.90193,0.53191 -1.15568,0.5917 -1.30744,0.30813 -0.1351,-0.25244 -0.0546,-0.3584 0.72922,-0.9593 1.7999,-1.37997 2.7376001,-2.2759 8.1839901,-7.81944 l 2.76525,-2.81458 -0.76168,0.0584 c -3.0393,0.23301 -3.79137,0.26124 -5.7706,0.21665 -1.82905,-0.0412 -2.3738201,-0.0865 -3.3384301,-0.27752 -2.0739,-0.41069 -3.77235,-1.11895 -5.17209,-2.15679 -1.7177,-1.2736 -2.64277001,-3.26738 -2.64504001,-5.70079 -9.1e-4,-1.03081 0.20026001,-2.0674 0.66966001,-3.44987 1.95421,-5.75553 5.85269,-11.04889 11.0778601,-15.04156 4.61409,-3.52573 10.25189,-5.91826 15.41258,-6.5407 1.34423,-0.16213 4.17206,-0.18864 5.46839,-0.0513 3.30194,0.34989 6.58202,1.2583 9.34741,2.58873 l 0.67573,0.3251 0.45154,-0.74907 c 1.22032,-2.02444 2.28738,-3.97633 2.84904,-5.21156 1.4929,-3.28326 3.10145,-6.20366 3.4676,-6.29562 0.25098,-0.063 0.54162,0.0917 0.60135,0.32003 0.0917,0.35057 -2.07363,4.97473 -3.8703,8.26534 -1.00343,1.83778 -2.21085,4.29817 -2.1419,4.36461 0.0128,0.0124 0.35121,0.21547 0.75193,0.45132 4.30238,2.53231 8.36874,6.66217 10.78882,10.9573 0.62472,1.10875 1.45619,3.18187 1.86038,4.63852 2.51307,9.05683 -0.95021,19.81569 -8.45992,26.28117 -1.84425,1.5878 -4.1289,3.04913 -6.18442,3.95574 -2.27136,1.0018 -4.23778,1.32101 -5.92807,0.96229 z m 3.77946,-1.48565 c 0.98473,-0.30214 2.94489,-1.19269 3.94251,-1.79118 5.09984,-3.05946 9.13924,-8.10815 11.10249,-13.87658 1.58481,-4.65648 1.8013,-9.48585 0.61648,-13.75178 -0.36471,-1.31311 -1.0551,-3.06263 -1.65317,-4.18928 -1.78679,-3.36596 -5.09005,-7.00293 -8.64686,-9.52042 -0.94985,-0.6723 -2.28787,-1.49921 -2.42585,-1.49921 -0.1667,0 -3.31734,7.18937 -5.02876,11.47499 -0.49006,1.22718 -1.24203,3.21482 -1.67104,4.41696 -0.79014,2.21411 -2.186,6.60247 -2.12084,6.66762 0.0739,0.0739 3.25483,-1.35282 4.56451,-2.04721 1.5471,-0.82027 2.08043,-1.12869 3.41513,-1.97494 0.51732,-0.328 1.01351,-0.59637 1.10265,-0.59637 0.20843,0 0.43829,0.32707 0.38176,0.54321 -0.0615,0.23517 -1.88442,1.69587 -3.07812,2.46648 -1.24596,0.80435 -3.66457,2.00797 -5.46428,2.7193 l -1.36607,0.53993 -0.24941,0.94099 c -0.48019,1.81167 -1.08947,4.81017 -1.33851,6.5874 -0.3125,2.23005 -0.37601,5.20875 -0.14368,6.73928 0.43731,2.88102 1.6426,5.10947 3.21751,5.94889 0.88215,0.47019 1.36807,0.56511 2.70337,0.52812 1.01754,-0.0282 1.31833,-0.074 2.14018,-0.3262 z m -23.9973,-17.66885 c 1.15205,-0.10015 2.21286,-0.18266 2.35735,-0.18336 0.32219,-0.002 0.9151,-0.56992 4.56148,-4.37269 6.7595,-7.04939 12.04652,-13.53729 16.60168,-20.37253 1.50017,-2.25108 1.87805,-2.84698 1.83181,-2.88871 -0.10754,-0.097 -1.10136,-0.55435 -1.91679,-0.88201 -4.97337,-1.99843 -10.23979,-2.50302 -15.08787,-1.44561 -5.96058,1.30006 -11.99046,4.72883 -16.3616901,9.30373 -3.09355,3.2377 -5.41389,6.97167 -6.7525,10.86638 -0.52707,1.53352 -0.67007,2.23318 -0.67007,3.27857 0,1.55297 0.44189,2.90453 1.29172,3.95084 0.40742,0.50162 1.44261,1.24469 2.39667,1.72036 1.13233,0.56455 2.9433,1.03598 4.6446401,1.20908 1.11598,0.11355 4.76905,0.0189 7.10357,-0.18405 z m 5.39696,-0.59963 c 2.33103,-0.37264 5.77581,-1.27601 8.62803,-2.26263 2.06335,-0.71374 2.80583,-1.01175 2.88335,-1.15729 0.0371,-0.0697 0.40309,-1.22854 0.81329,-2.57526 0.83611,-2.74503 2.14606,-6.45455 3.26791,-9.25409 0.85065,-2.12277 2.53918,-6.12001 3.08728,-7.30847 0.20212,-0.43829 0.3549,-0.79688 0.33949,-0.79688 -0.0154,0 -0.22511,0.29712 -0.46601,0.66027 -1.24482,1.87645 -3.80732,5.33602 -5.81814,7.8549 -2.94567,3.68995 -6.97736,8.16752 -10.9268,12.13526 -1.55807,1.56529 -2.80192,2.84598 -2.76411,2.84598 0.0378,0 0.46788,-0.0638 0.95571,-0.14179 z m 64.22709,13.57425 c -1.85237,-0.22746 -3.28214,-0.55717 -4.98449,-1.14946 -4.4044,-1.53238 -7.99075,-4.23726 -10.39379,-7.83916 -0.50756,-0.76078 -0.52858,-0.81959 -0.34683,-0.97043 0.16185,-0.13432 0.27455,-0.0361 0.9262,0.80694 1.14507,1.48146 3.14585,3.24833 5.04617,4.45624 1.06844,0.67913 3.00584,1.64762 4.36815,2.1836 5.03584,1.98124 10.57939,2.06339 14.81047,0.21945 2.13391,-0.92997 3.980865,-2.51521 5.073825,-4.35482 1.06836,-1.79825 1.72572,-3.70109 2.23246,-6.46229 0.21105,-1.15004 0.23559,-1.51717 0.24366,-3.64663 0.007,-1.86699 -0.0266,-2.60866 -0.15921,-3.50625 -0.4157,-2.81386 -1.47271,-6.00757 -2.56203,-7.74107 -1.445985,-2.30108 -3.867365,-4.3147 -6.658915,-5.53755 -2.38614,-1.04526 -4.6968,-1.54797 -7.45906,-1.62278 -1.94514,-0.0527 -2.0259,-0.0659 -2.1562,-0.35183 -0.15326,-0.33637 0.0896,-0.63405 0.67284,-0.82491 0.26487,-0.0867 1.17827,-0.41434 2.02978,-0.72816 6.94822,-2.56075 11.71458,-5.76917 14.757515,-9.93389 0.84537,-1.15701 1.35844,-2.17938 1.65724,-3.30233 0.32966,-1.23891 0.34292,-3.25203 0.0307,-4.65567 -0.69414,-3.12035 -2.32742,-5.85418 -5.435955,-9.09885 -6.17564,-6.44609 -15.12962,-10.86989 -28.58624,-14.12331 -4.93459,-1.19304 -9.72088,-1.89018 -15.07231,-2.19532 -2.32832,-0.13276 -8.44407,-0.0539 -10.60981,0.13682 -6.9187,0.60926 -12.4868,1.7799 -19.03391,4.00171 -2.71367,0.9209 -4.48165,1.66852 -6.04088,2.55447 -3.01775,1.7147 -5.1732,4.13725 -5.71086,6.41855 -0.12661,0.53719 -0.14729,0.90203 -0.10328,1.82143 0.0523,1.09258 0.16922,1.67415 0.54289,2.70051 0.65081,1.78753 2.46213,4.2257 4.22734,5.69029 1.37305,1.13922 4.47044,2.6536 6.5839,3.21901 1.33456,0.35703 1.93389,0.44437 3.45969,0.5042 1.2164,0.0477 1.41458,0.0762 1.43956,0.20691 0.0443,0.23211 -0.26534,0.28543 -1.66622,0.28688 -2.60774,0.003 -4.68394,-0.56533 -7.83214,-2.14283 -1.64293,-0.82324 -2.44858,-1.38621 -3.66143,-2.55854 -2.04006,-1.97193 -3.51836,-4.49252 -3.98844,-6.80057 -0.18991,-0.93247 -0.1489,-2.66126 0.0832,-3.50795 0.67027,-2.44492 3.06159,-4.99866 6.36174,-6.79383 3.64331,-1.98184 11.22516,-4.35027 17.59776,-5.49722 4.29219,-0.77251 7.99306,-1.12159 12.74998,-1.20263997 9.59291,-0.16345 18.19359,1.16323997 28.27766,4.36192997 6.44239,2.04355 11.15697,4.22332 15.5732,7.20023 4.62028,3.11445 8.892935,7.65312 10.563135,11.2208 1.78366,3.81002 1.89531,7.70582 0.30409,10.60982 -0.76924,1.40387 -2.49518,3.49199 -4.01572,4.85838 -2.830455,2.54353 -6.884615,4.91323 -11.359535,6.63977 l -0.36429,0.14055 0.31875,0.0509 c 0.17532,0.028 0.55635,0.0763 0.84674,0.10738 2.26453,0.24215 5.17695,1.23226 7.33901,2.49496 2.57541,1.50412 4.935285,4.04725 6.090425,6.56338 1.94615,4.2391 2.6075,9.53228 1.78644,14.2982 -0.5357,3.10952 -1.7083,6.08232 -3.0714,7.7866 -2.313305,2.89237 -5.632465,4.58282 -9.913965,5.0492 -1.16534,0.12694 -3.61038,0.10617 -4.8076,-0.0408 z m -18.0549,-20.72796 c -0.0876,-0.0497 -0.15937,-0.18167 -0.15937,-0.29332 0,-0.19428 0.9716,-3.79227 1.56588,-5.79867 1.00288,-3.38595 2.88638,-7.91066 5.29794,-12.72722 1.08721,-2.17146 1.21613,-2.34061 1.51216,-1.98392 0.0899,0.10828 -0.0395,0.51695 -0.6846,2.16295 -0.43746,1.1162 -1.24523,3.03351 -1.79505,4.2607 -2.45737,5.48483 -2.90004,6.63448 -3.76282,9.77231 -0.61154,2.22408 -1.39872,4.42424 -1.63951,4.5824 -0.12178,0.08 -0.22388,0.0875 -0.33463,0.0248 z"
     id="path2162"
     inkscape:connector-curvature="0"
     inkscape:export-filename="/home/alex/Dropbox/Development/Active_Projects/amethyst/website/project/static/img/insignia-sm.png"
     inkscape:export-xdpi="90.033264"
     inkscape:export-ydpi="90.033264" />
</svg>
